<svg xmlns="http://www.w3.org/2000/svg" viewBox="0 0 800 800"><defs><style>.cls-1{font-size:260.9px;font-family:CopperplateGothic-Light, Copperplate Gothic Light;font-weight:300;}.cls-1,.cls-6{fill:#fff;}.cls-2{letter-spacing:-0.02em;}.cls-3{letter-spacing:-0.01em;}.cls-4,.cls-5,.cls-7{fill:#ddd;}.cls-13,.cls-4{stroke:#0e0e0f;}.cls-13,.cls-4,.cls-5,.cls-6,.cls-7,.cls-8{stroke-miterlimit:10;}.cls-4,.cls-6,.cls-7{stroke-width:4px;}.cls-5{stroke:#000;}.cls-5,.cls-8{stroke-width:3px;}.cls-6,.cls-7,.cls-8{stroke:#151516;}.cls-13,.cls-8{fill:none;}.cls-9{fill:#151516;}.cls-10{font-size:32.07px;font-family:PermanentMarker, Permanent Marker;}.cls-11{letter-spacing:-0.02em;}.cls-12{letter-spacing:-0.01em;}.cls-13{stroke-linecap:round;stroke-width:5px;}</style></defs><g id="Aire"><text class="cls-1" transform="translate(90.91 368.46) scale(0.62 1)"><tspan class="cls-2">V</tspan><tspan x="182.17" y="0">ic</tspan><tspan class="cls-3" x="431.22" y="0">t</tspan><tspan x="572.5" y="0">or</tspan></text><path class="cls-4" d="M744.92,247.13,731,256.3c-2.43,1.61-2.71,9.31-.94,16.38s5.95,15.78,10.4,22.93a165.27,165.27,0,0,0,13.86,18.71,42.37,42.37,0,0,0,6,6.34c3,2.23,4.08-.17,5.74-1.05l5.07-2.65,6.54-3.42c1.88-1,5.49,7.51,6.23,10.68a27.06,27.06,0,0,1,.66,6.86c-.06,12.9-.84,27.65-6.27,32.53-3.12,2.81-7.9,2.28-13.46-.62s-12-10.23-17.43-13.25c-5.61-3.1-9.19-.72-11.67,3.16-7.94,12.41-15,26.5-22.51,39.63l-23.45,40.88L669.2,469.34l-9.94,17.32-.1.18s-4.5,8.11,1.4,32.44,1.58,32.12,1.58,32.12-4.21,9.18-17.26-.66-13.33-10.92-13.33-10.92-8.7-9.76-5.36-12.59a17.63,17.63,0,0,1,6.36-3.7c2.44-.73,5.22-1.19,5.54-5.65.19-2.55-.47-6.15-1.39-9.88-3.24-13.1-11.52-32.5-20.74-41.82-9-9.13-15.21,5.18-15.21,5.18s-6.77-.51-4.88-21.4,8.31-19.76,8.31-19.76,5-4.25,17.59,9.62c0,0,5.26,6.41,12.21,1.82l69.45-133.21s8.47-15.28,0-44.51-2.83-37.82-2.82-37.82c3.77-5.75,10.31-6.23,18.3-2.77C723,225.08,741.61,233.64,744.92,247.13Z"/><path class="cls-5" d="M109.69,460.43H687a15.15,15.15,0,0,1,15.15,15.15v91.6a22.72,22.72,0,0,1-22.72,22.72H113.82a19.28,19.28,0,0,1-19.28-19.28v-95A15.15,15.15,0,0,1,109.69,460.43Z"/><path class="cls-6" d="M103.65,379.11H693.18a17.8,17.8,0,0,1,17.8,17.8v122.3a5.72,5.72,0,0,1-5.72,5.72H91.44a5.68,5.68,0,0,1-5.68-5.68V397a17.9,17.9,0,0,1,17.9-17.9Z"/><path class="cls-7" d="M162.52,475.34H631.91a7.5,7.5,0,0,1,7.5,7.5v39.85a0,0,0,0,1,0,0H153.54a0,0,0,0,1,0,0V484.31a9,9,0,0,1,9-9Z"/><line class="cls-8" x1="154.6" y1="543.99" x2="635.29" y2="544.16"/><line class="cls-8" x1="155.41" y1="556.97" x2="636.1" y2="557.15"/><line class="cls-8" x1="156.11" y1="569.95" x2="636.8" y2="570.13"/><rect class="cls-9" x="644.21" y="428.7" width="21.37" height="20.35" rx="1.66"/><rect class="cls-9" x="642.68" y="396" width="26.48" height="24.42" rx="2.05"/><text class="cls-10" transform="translate(116.54 426.52) scale(0.51 1)">Air condit<tspan class="cls-11" x="158.36" y="0">i</tspan><tspan x="168.01" y="0">on</tspan><tspan class="cls-12" x="206.29" y="0">e</tspan><tspan x="222.7" y="0">r</tspan></text><text class="cls-1" transform="translate(49 776.57) scale(0.62 1)">Cubilla</text><polyline class="cls-13" points="48.5 190.5 447.5 63.5 777.5 190.5"/><polyline class="cls-13" points="539.5 98.5 541.5 34.5 594.5 34.5 592.54 115.14"/></g></svg>