<svg id="Capa_1" data-name="Capa 1" xmlns="http://www.w3.org/2000/svg" viewBox="0 0 800 800"><defs><style>.cls-1,.cls-2{fill:#fff;}.cls-2{stroke:#000;stroke-linecap:round;stroke-miterlimit:10;stroke-width:10px;}</style></defs><path class="cls-1" d="M420.5,712c-82.13,0-159.35-32.14-217.43-90.5a310.06,310.06,0,0,1,0-437C261.15,126.14,338.37,94,420.5,94s159.35,32.14,217.43,90.5a310.06,310.06,0,0,1,0,437C579.85,679.86,502.63,712,420.5,712Z"/><path d="M420.5,99a300.78,300.78,0,0,1,213.88,89,304.6,304.6,0,0,1-96.15,495.1A301.26,301.26,0,0,1,206.62,618a304.6,304.6,0,0,1,96.15-495.1A299.21,299.21,0,0,1,420.5,99m0-10C247.91,89,108,229.58,108,403S247.91,717,420.5,717,733,576.42,733,403,593.09,89,420.5,89Z"/><line class="cls-2" x1="226.3" y1="275.16" x2="605.77" y2="275.16"/><line class="cls-2" x1="228.54" y1="407.49" x2="608" y2="407.49"/><line class="cls-2" x1="228.54" y1="542.06" x2="608" y2="542.06"/></svg>