<svg id="Capa_1" data-name="Capa 1" xmlns="http://www.w3.org/2000/svg" viewBox="0 0 800 800"><defs><style>.cls-1{fill:#ddd;}.cls-1,.cls-2,.cls-3{stroke:#000;}.cls-1,.cls-11,.cls-2,.cls-3,.cls-4{stroke-miterlimit:10;}.cls-1,.cls-2,.cls-3,.cls-4{stroke-width:6px;}.cls-2{fill:#fff;}.cls-11,.cls-3{fill:none;stroke-linecap:round;}.cls-4{fill:#0054ad;}.cls-11,.cls-4{stroke:#0e0e0f;}.cls-5{font-size:27.51px;font-family:PermanentMarker, Permanent Marker;}.cls-6{letter-spacing:-0.02em;}.cls-7{letter-spacing:-0.01em;}.cls-8{letter-spacing:0em;}.cls-9{font-size:219.33px;font-family:FranklinGothic-Demi, Franklin Gothic Demi;font-weight:300;}.cls-10{letter-spacing:0em;}.cls-11{stroke-width:12px;}</style></defs><path class="cls-1" d="M196.53,427.85H601.2A15.15,15.15,0,0,1,616.35,443v92a3.88,3.88,0,0,1-3.88,3.88H184.91a3.53,3.53,0,0,1-3.53-3.53V443a15.15,15.15,0,0,1,15.15-15.15Z"/><path class="cls-2" d="M187,358.1H611.73a4.63,4.63,0,0,1,4.63,4.63V482a1.15,1.15,0,0,1-1.15,1.15H182.5a1.1,1.1,0,0,1-1.1-1.1V363.7a5.6,5.6,0,0,1,5.6-5.6Z"/><path class="cls-1" d="M237.53,440.64H559.07a7.5,7.5,0,0,1,7.5,7.5v33.11a0,0,0,0,1,0,0h-338a0,0,0,0,1,0,0V449.61a9,9,0,0,1,9-9Z"/><line class="cls-3" x1="229.29" y1="499.52" x2="563.7" y2="499.67"/><line class="cls-3" x1="229.85" y1="510.66" x2="564.27" y2="510.81"/><line class="cls-3" x1="230.34" y1="521.79" x2="564.76" y2="521.95"/><rect class="cls-4" x="570.9" y="400.64" width="14.87" height="17.46" rx="1.66"/><rect class="cls-4" x="568.84" y="372.59" width="18.42" height="20.95" rx="2.05"/><text class="cls-5" transform="translate(202.81 398.76) scale(0.42 1)">Air condit<tspan class="cls-6" x="135.84" y="0">i</tspan><tspan x="144.11" y="0">on</tspan><tspan class="cls-7" x="176.94" y="0">e</tspan><tspan class="cls-8" x="191.02" y="0">r</tspan></text><text class="cls-9" transform="translate(178.52 339.17) scale(0.79 1)">Víc<tspan class="cls-10" x="292.26" y="0">t</tspan><tspan x="368.51" y="0">or</tspan></text><text class="cls-9" transform="translate(135.85 712.17) scale(0.79 1)">Cubilla</text><polyline class="cls-11" points="34.37 200.5 433.37 73.5 763.37 200.5"/><polyline class="cls-11" points="525.37 108.5 527.37 44.5 580.37 44.5 578.41 125.14"/></svg>